<svg height="800" viewBox="0 0 94.926 94.926" width="800" xmlns="http://www.w3.org/2000/svg"><path d="m55.931 47.463 38.375-38.373c.826-.827.826-2.167 0-2.994l-5.473-5.476c-.397-.396-.937-.62-1.498-.62-.562 0-1.101.224-1.498.62l-38.374 38.374-38.374-38.374c-.795-.795-2.202-.794-2.995 0l-5.472 5.476c-.827.827-.827 2.167 0 2.994l38.374 38.373-38.374 38.373c-.827.827-.827 2.167 0 2.994l5.473 5.476c.397.396.936.62 1.498.62s1.1-.224 1.497-.62l38.374-38.374 38.374 38.374c.397.396.937.62 1.498.62s1.101-.224 1.498-.62l5.473-5.476c.826-.827.826-2.167 0-2.994z"/></svg>